<svg width="94" height="62" viewBox="0 0 94 62" fill="none" xmlns="http://www.w3.org/2000/svg">
<path d="M42.868 33.14H39.22L38.548 35H37.396L40.42 26.684H41.68L44.692 35H43.54L42.868 33.14ZM42.556 32.252L41.044 28.028L39.532 32.252H42.556ZM45.1939 31.688C45.1939 31.016 45.3299 30.428 45.6019 29.924C45.8739 29.412 46.2459 29.016 46.7179 28.736C47.1979 28.456 47.7339 28.316 48.3259 28.316C48.8379 28.316 49.3139 28.436 49.7539 28.676C50.1939 28.908 50.5299 29.216 50.7619 29.6V26.12H51.8659V35H50.7619V33.764C50.5459 34.156 50.2259 34.48 49.8019 34.736C49.3779 34.984 48.8819 35.108 48.3139 35.108C47.7299 35.108 47.1979 34.964 46.7179 34.676C46.2459 34.388 45.8739 33.984 45.6019 33.464C45.3299 32.944 45.1939 32.352 45.1939 31.688ZM50.7619 31.7C50.7619 31.204 50.6619 30.772 50.4619 30.404C50.2619 30.036 49.9899 29.756 49.6459 29.564C49.3099 29.364 48.9379 29.264 48.5299 29.264C48.1219 29.264 47.7499 29.36 47.4139 29.552C47.0779 29.744 46.8099 30.024 46.6099 30.392C46.4099 30.76 46.3099 31.192 46.3099 31.688C46.3099 32.192 46.4099 32.632 46.6099 33.008C46.8099 33.376 47.0779 33.66 47.4139 33.86C47.7499 34.052 48.1219 34.148 48.5299 34.148C48.9379 34.148 49.3099 34.052 49.6459 33.86C49.9899 33.66 50.2619 33.376 50.4619 33.008C50.6619 32.632 50.7619 32.196 50.7619 31.7ZM52.8953 31.688C52.8953 31.016 53.0313 30.428 53.3033 29.924C53.5753 29.412 53.9473 29.016 54.4193 28.736C54.8993 28.456 55.4353 28.316 56.0273 28.316C56.5393 28.316 57.0153 28.436 57.4553 28.676C57.8953 28.908 58.2313 29.216 58.4633 29.6V26.12H59.5673V35H58.4633V33.764C58.2473 34.156 57.9273 34.48 57.5033 34.736C57.0793 34.984 56.5833 35.108 56.0153 35.108C55.4313 35.108 54.8993 34.964 54.4193 34.676C53.9473 34.388 53.5753 33.984 53.3033 33.464C53.0313 32.944 52.8953 32.352 52.8953 31.688ZM58.4633 31.7C58.4633 31.204 58.3633 30.772 58.1633 30.404C57.9633 30.036 57.6913 29.756 57.3473 29.564C57.0113 29.364 56.6393 29.264 56.2313 29.264C55.8233 29.264 55.4513 29.36 55.1153 29.552C54.7793 29.744 54.5113 30.024 54.3113 30.392C54.1113 30.76 54.0113 31.192 54.0113 31.688C54.0113 32.192 54.1113 32.632 54.3113 33.008C54.5113 33.376 54.7793 33.66 55.1153 33.86C55.4513 34.052 55.8233 34.148 56.2313 34.148C56.6393 34.148 57.0113 34.052 57.3473 33.86C57.6913 33.66 57.9633 33.376 58.1633 33.008C58.3633 32.632 58.4633 32.196 58.4633 31.7ZM66.1239 35.108C65.6199 35.108 65.1679 35.024 64.7679 34.856C64.3679 34.68 64.0519 34.44 63.8199 34.136C63.5879 33.824 63.4599 33.468 63.4359 33.068H64.5639C64.5959 33.396 64.7479 33.664 65.0199 33.872C65.2999 34.08 65.6639 34.184 66.1119 34.184C66.5279 34.184 66.8559 34.092 67.0959 33.908C67.3359 33.724 67.4559 33.492 67.4559 33.212C67.4559 32.924 67.3279 32.712 67.0719 32.576C66.8159 32.432 66.4199 32.292 65.8839 32.156C65.3959 32.028 64.9959 31.9 64.6839 31.772C64.3799 31.636 64.1159 31.44 63.8919 31.184C63.6759 30.92 63.5679 30.576 63.5679 30.152C63.5679 29.816 63.6679 29.508 63.8679 29.228C64.0679 28.948 64.3519 28.728 64.7199 28.568C65.0879 28.4 65.5079 28.316 65.9799 28.316C66.7079 28.316 67.2959 28.5 67.7439 28.868C68.1919 29.236 68.4319 29.74 68.4639 30.38H67.3719C67.3479 30.036 67.2079 29.76 66.9519 29.552C66.7039 29.344 66.3679 29.24 65.9439 29.24C65.5519 29.24 65.2399 29.324 65.0079 29.492C64.7759 29.66 64.6599 29.88 64.6599 30.152C64.6599 30.368 64.7279 30.548 64.8639 30.692C65.0079 30.828 65.1839 30.94 65.3919 31.028C65.6079 31.108 65.9039 31.2 66.2799 31.304C66.7519 31.432 67.1359 31.56 67.4319 31.688C67.7279 31.808 67.9799 31.992 68.1879 32.24C68.4039 32.488 68.5159 32.812 68.5239 33.212C68.5239 33.572 68.4239 33.896 68.2239 34.184C68.0239 34.472 67.7399 34.7 67.3719 34.868C67.0119 35.028 66.5959 35.108 66.1239 35.108ZM70.9894 29.324V33.2C70.9894 33.52 71.0574 33.748 71.1934 33.884C71.3294 34.012 71.5654 34.076 71.9014 34.076H72.7054V35H71.7214C71.1134 35 70.6574 34.86 70.3534 34.58C70.0494 34.3 69.8974 33.84 69.8974 33.2V29.324H69.0454V28.424H69.8974V26.768H70.9894V28.424H72.7054V29.324H70.9894ZM76.4885 35.108C75.8725 35.108 75.3125 34.968 74.8085 34.688C74.3125 34.408 73.9205 34.012 73.6325 33.5C73.3525 32.98 73.2125 32.38 73.2125 31.7C73.2125 31.028 73.3565 30.436 73.6445 29.924C73.9405 29.404 74.3405 29.008 74.8445 28.736C75.3485 28.456 75.9125 28.316 76.5365 28.316C77.1605 28.316 77.7245 28.456 78.2285 28.736C78.7325 29.008 79.1285 29.4 79.4165 29.912C79.7125 30.424 79.8605 31.02 79.8605 31.7C79.8605 32.38 79.7085 32.98 79.4045 33.5C79.1085 34.012 78.7045 34.408 78.1925 34.688C77.6805 34.968 77.1125 35.108 76.4885 35.108ZM76.4885 34.148C76.8805 34.148 77.2485 34.056 77.5925 33.872C77.9365 33.688 78.2125 33.412 78.4205 33.044C78.6365 32.676 78.7445 32.228 78.7445 31.7C78.7445 31.172 78.6405 30.724 78.4325 30.356C78.2245 29.988 77.9525 29.716 77.6165 29.54C77.2805 29.356 76.9165 29.264 76.5245 29.264C76.1245 29.264 75.7565 29.356 75.4205 29.54C75.0925 29.716 74.8285 29.988 74.6285 30.356C74.4285 30.724 74.3285 31.172 74.3285 31.7C74.3285 32.236 74.4245 32.688 74.6165 33.056C74.8165 33.424 75.0805 33.7 75.4085 33.884C75.7365 34.06 76.0965 34.148 76.4885 34.148ZM81.9803 29.636C82.1963 29.26 82.5163 28.948 82.9403 28.7C83.3723 28.444 83.8723 28.316 84.4403 28.316C85.0243 28.316 85.5523 28.456 86.0243 28.736C86.5043 29.016 86.8803 29.412 87.1523 29.924C87.4243 30.428 87.5603 31.016 87.5603 31.688C87.5603 32.352 87.4243 32.944 87.1523 33.464C86.8803 33.984 86.5043 34.388 86.0243 34.676C85.5523 34.964 85.0243 35.108 84.4403 35.108C83.8803 35.108 83.3843 34.984 82.9523 34.736C82.5283 34.48 82.2043 34.164 81.9803 33.788V38.12H80.8883V28.424H81.9803V29.636ZM86.4443 31.688C86.4443 31.192 86.3443 30.76 86.1443 30.392C85.9443 30.024 85.6723 29.744 85.3283 29.552C84.9923 29.36 84.6203 29.264 84.2123 29.264C83.8123 29.264 83.4403 29.364 83.0963 29.564C82.7603 29.756 82.4883 30.04 82.2803 30.416C82.0803 30.784 81.9803 31.212 81.9803 31.7C81.9803 32.196 82.0803 32.632 82.2803 33.008C82.4883 33.376 82.7603 33.66 83.0963 33.86C83.4403 34.052 83.8123 34.148 84.2123 34.148C84.6203 34.148 84.9923 34.052 85.3283 33.86C85.6723 33.66 85.9443 33.376 86.1443 33.008C86.3443 32.632 86.4443 32.192 86.4443 31.688ZM90.7257 26.528C91.5177 26.528 92.1577 26.752 92.6457 27.2C93.1337 27.648 93.3777 28.248 93.3777 29C93.3777 29.84 93.1177 30.464 92.5977 30.872C92.0777 31.272 91.3737 31.472 90.4857 31.472L90.4497 32.612H89.5017L89.4537 30.716H89.8017C90.5937 30.716 91.2137 30.596 91.6617 30.356C92.1097 30.116 92.3337 29.664 92.3337 29C92.3337 28.52 92.1897 28.14 91.9017 27.86C91.6137 27.58 91.2257 27.44 90.7377 27.44C90.2417 27.44 89.8497 27.576 89.5617 27.848C89.2817 28.112 89.1417 28.476 89.1417 28.94H88.1097C88.1097 28.46 88.2177 28.04 88.4337 27.68C88.6497 27.312 88.9537 27.028 89.3457 26.828C89.7457 26.628 90.2057 26.528 90.7257 26.528ZM89.9697 35.072C89.7617 35.072 89.5857 35 89.4417 34.856C89.2977 34.712 89.2257 34.536 89.2257 34.328C89.2257 34.12 89.2977 33.944 89.4417 33.8C89.5857 33.656 89.7617 33.584 89.9697 33.584C90.1697 33.584 90.3377 33.656 90.4737 33.8C90.6177 33.944 90.6897 34.12 90.6897 34.328C90.6897 34.536 90.6177 34.712 90.4737 34.856C90.3377 35 90.1697 35.072 89.9697 35.072Z" fill="#5C5C5C"/>
<path d="M15.2929 61.7071C15.6834 62.0976 16.3166 62.0976 16.7071 61.7071L23.0711 55.3431C23.4616 54.9526 23.4616 54.3195 23.0711 53.9289C22.6805 53.5384 22.0474 53.5384 21.6569 53.9289L16 59.5858L10.3431 53.9289C9.95262 53.5384 9.31946 53.5384 8.92893 53.9289C8.53841 54.3195 8.53841 54.9526 8.92893 55.3431L15.2929 61.7071ZM15 -1.05714e-10L15 61L17 61L17 1.05714e-10L15 -1.05714e-10Z" fill="#AAAAAA"/>
<circle cx="16" cy="31" r="15.5" fill="white" stroke="black"/>
<path d="M25.3125 28.5938H18.2812V21.5625C18.2812 20.6997 17.5815 20 16.7188 20H15.1562C14.2935 20 13.5938 20.6997 13.5938 21.5625V28.5938H6.5625C5.69971 28.5938 5 29.2935 5 30.1562V31.7188C5 32.5815 5.69971 33.2812 6.5625 33.2812H13.5938V40.3125C13.5938 41.1753 14.2935 41.875 15.1562 41.875H16.7188C17.5815 41.875 18.2812 41.1753 18.2812 40.3125V33.2812H25.3125C26.1753 33.2812 26.875 32.5815 26.875 31.7188V30.1562C26.875 29.2935 26.1753 28.5938 25.3125 28.5938Z" fill="black"/>
</svg>
